<?xml version="1.0" encoding="utf-8"?>
<!-- Generator: Adobe Illustrator 15.0.2, SVG Export Plug-In . SVG Version: 6.00 Build 0)  -->
<!DOCTYPE svg PUBLIC "-//W3C//DTD SVG 1.1//EN" "http://www.w3.org/Graphics/SVG/1.1/DTD/svg11.dtd">
<svg version="1.1" id="Layer_1" xmlns="http://www.w3.org/2000/svg" xmlns:xlink="http://www.w3.org/1999/xlink" x="0px" y="0px"
	 width="302.1px" height="152.5px" viewBox="0 0 302.1 152.5" enable-background="new 0 0 302.1 152.5" xml:space="preserve">
<path fill="#E9543D" d="M2.3,0v87.8H74v-23H33.7v-9.3H65.4V34.9H33.7v-9.3H74V0 M127.7,54.5c-2.7-0.4-7-1.3-13.9-1.3
	c-7.2,0-12.1,2-12.1,9.5c0,7.7,5.5,9,11.899,9c4.4,0,9.2-0.8,14-1.7v16c-6.5,1.8-13.3,3.1-19.7,3.1C88.2,89.1,78.6,80,78.6,60.8
	c0-17.3,9.3-27,28.9-27c7.2,0,16.5,2.4,20.1,3.5v17.2H127.7z M33.7,93.7h20v35.8H74v16.9H33.7 M108.1,104.9H108l-4.8,20.1h9.699
	L108.1,104.9z M115.7,138.3h-15.2l-1.7,8.101H77.3l15.9-52.7h30.3l15.6,52.7h-21.8L115.7,138.3z M27.8,104.8
	c-1.5-0.2-3.5-0.8-7.4-0.8c-4.1,0-6.5,2-6.5,6.3c0,4.4,2.801,6,6.4,6c2.5,0,4.8-0.5,7.5-1v9.101c-3.7,1-7.2,1.8-10.8,1.8
	c-11.2,0-15.8-6-15.8-16.9c0-9.8,4.399-16.2,15.5-16.2c4.1,0,9,1.4,11.1,2V104.8z M301.8,134.3c-0.8-0.899-2.3-1.899-4.8-1.899
	c-3.7,0-5.101,2.199-5.101,4.199c0,1.801,1.101,3.2,3.301,3.7l2.399,0.601c1.3,0.3,2,0.899,2,1.899c0,1.4-1.2,2-2.899,2
	c-2.2,0-3.101-1-3.801-1.899l-1.5,1.5c0.801,1,2.301,2.3,5.2,2.3c3.8,0,5.5-1.9,5.5-4.101c0-2-1.3-3.199-3.8-3.8l-2.3-0.5
	c-1.2-0.3-1.7-1-1.7-1.8c0-1.1,0.8-2.1,2.6-2.1c1.601,0,2.7,0.699,3.5,1.5L301.8,134.3L301.8,134.3z M280.8,138.5
	c0.2-2.3,1.1-4,3.6-4c2,0,3.2,1.4,3.2,3.4c0,0.199,0,0.399-0.1,0.6H280.8z M284.6,144.6c-2.7,0-3.8-1.699-3.899-4.3h8.899
	c0.101-0.6,0.2-1.5,0.2-2.1c0-2.9-1.7-5.8-5.5-5.8c-4.1,0-6,3.199-6,7.1c0,4.2,1.8,7.2,6.3,7.2c2.101,0,4-0.9,4.9-1.9l-1.2-1.6
	C287.3,144.2,285.8,144.6,284.6,144.6 M272.7,125.7v17.1c0,2.2,0.8,3.7,3.1,3.7h1.4v-2.2H276.4c-1.1,0-1.399-0.5-1.399-1.7v-16.8
	h-2.3V125.7z M261.2,138.5c0.1-2.3,1.1-4,3.6-4c2,0,3.2,1.4,3.2,3.4c0,0.199,0,0.399-0.101,0.6H261.2z M265,144.6
	c-2.7,0-3.8-1.699-3.9-4.3h8.9c0.1-0.6,0.2-1.5,0.2-2.1c0-2.9-1.601-5.8-5.5-5.8c-4.101,0-6,3.199-6,7.1c0,4.2,1.8,7.2,6.3,7.2
	c2.1,0,4-0.9,4.899-1.9l-1.2-1.6C267.699,144.2,266.199,144.6,265,144.6 M246.699,139.6c0-2.899,0.9-4.899,3.801-4.899
	c1.8,0,2.8,0.899,3.3,1.7v6.5c-0.7,0.899-1.9,1.699-3.3,1.699C247.5,144.5,246.699,142.3,246.699,139.6 M253.9,132.7v1.3
	c-0.8-0.9-2-1.6-3.899-1.6c-3.9,0-5.801,2.8-5.801,7.1s1.801,7.1,5.9,7.1c1.6,0,2.9-0.699,3.8-1.699v2.6c0,1.7-1.2,3-3.3,3
	c-2,0-3.2-1.1-3.2-2.2h-2.2c0,2.2,1.801,4.101,5.4,4.101s5.7-2.2,5.7-5.101v-14.7h-2.4V132.7z M230,146.4h2.399v-10.2
	c0.801-0.9,2.101-1.601,3.7-1.601c2.4,0,3.101,1.101,3.101,3.2v8.5h2.399v-8.7c0-3.399-1.399-5.199-4.8-5.199
	c-2,0-3.7,0.8-4.5,1.899v-1.7H230V146.4z M219.3,128.8l3.5,10.101h-7L219.3,128.8z M225.3,146.4h2.8l-7.3-20.301h-3.1L210.4,146.4
	h2.801l1.8-5.301h8.399L225.3,146.4L225.3,146.4z M202.7,134.3C201.9,133.4,200.4,132.4,197.9,132.4c-3.699,0-5.1,2.199-5.1,4.199
	c0,1.801,1.1,3.2,3.3,3.7l2.4,0.601c1.3,0.3,2,0.899,2,1.899c0,1.4-1.2,2-2.9,2c-2.2,0-3.1-1-3.8-1.899l-1.5,1.5
	c0.8,1,2.3,2.3,5.2,2.3c3.8,0,5.5-1.9,5.5-4.101c0-2-1.3-3.199-3.8-3.8l-2.301-0.5c-1.199-0.3-1.699-1-1.699-1.8
	c0-1.1,0.8-2.1,2.6-2.1c1.6,0,2.7,0.699,3.5,1.5L202.7,134.3L202.7,134.3z M184.6,144.5c-2.6,0-3.7-1.9-3.7-5c0-3,1.101-4.9,3.7-4.9
	c2.7,0,3.8,1.9,3.8,4.9C188.4,142.6,187.3,144.5,184.6,144.5 M184.7,132.4c-4.301,0-6.2,3-6.2,7.1s1.899,7.1,6.1,7.1
	c4.4,0,6.2-3,6.2-7.199C190.8,135.5,189,132.4,184.7,132.4 M168.6,144.2V126.1H166V146.4h11.2v-2.2H168.6z M272.7,95.7v17.1
	c0,2.2,0.8,3.7,3.1,3.7h1.4v-2.2H276.4c-1.1,0-1.399-0.5-1.399-1.7V95.7H272.7L272.7,95.7z M261.1,112.7c0-1.5,1.5-2.3,3.9-2.601
	l2.2-0.3v3.3c-0.801,0.9-2.2,1.7-3.801,1.7C261.8,114.8,261.1,114,261.1,112.7 M269.7,116.4V106.8c0-2.899-1.801-4.399-5.101-4.399
	c-3.399,0-5.2,1.399-5.2,3.399c0,0.4,0,0.7,0.101,1h2.1V106c0-1,0.9-1.7,2.8-1.7c2.2,0,2.801,0.9,2.801,2.4v1.399l-2.301,0.2
	c-3.8,0.4-6.3,1.601-6.3,4.4c0,2.399,1.601,3.899,4.101,3.899c2.199,0,3.8-1,4.6-2v1.7h2.4V116.4z M252.3,105v-2.2H250v13.7h2.399
	v-8.9c0.7-1.5,1.7-2.6,3.301-2.6c0.5,0,1.3,0.1,1.8,0.3l0.3-2.5c-0.5-0.2-1-0.2-1.6-0.2C254.1,102.4,253,103.6,252.3,105L252.3,105z
	 M244.1,104.8h3.7v-2.1h-3.7v-3.9l-2.399,0.5v3.4L239.1,103v1.8h2.601v7.9c0,2.399,1,4,3.5,4c1.1,0,2.1-0.2,2.8-0.601l-0.2-2.1
	c-0.6,0.2-1.3,0.4-1.9,0.4c-1.3,0-1.899-0.801-1.899-2V104.8H244.1z M225.8,116.4h2.4v-10.2c0.8-0.9,2.1-1.601,3.699-1.601
	c2.4,0,3.101,1.101,3.101,3.2v8.5h2.399v-8.7c0-3.399-1.399-5.3-4.8-5.3c-2,0-3.7,0.8-4.5,1.9V102.6h-2.3V116.4L225.8,116.4z
	 M214.2,108.5c0.199-2.3,1.1-4,3.6-4c2,0,3.2,1.4,3.2,3.4c0,0.199,0,0.399-0.101,0.6H214.2z M218,114.6c-2.7,0-3.8-1.699-3.9-4.3
	h8.9c0.1-0.6,0.2-1.5,0.2-2.1c0-2.9-1.7-5.8-5.5-5.8c-4.101,0-6,3.199-6,7.1c0,4.2,1.8,7.2,6.3,7.2c2.1,0,4-0.9,4.899-1.9
	l-1.199-1.6C220.7,114.2,219.2,114.6,218,114.6 M197.8,106.3c0-4.8,1.6-8.2,5.8-8.2c1.9,0,3.7,1,4.5,2.601l2-1.3
	c-1.1-2.101-3.5-3.5-6.6-3.5c-5.7,0-8.3,4-8.3,10.5c0,6.399,2.6,10.399,8.3,10.399c3.1,0,5.5-1.5,6.6-3.5l-2-1.3
	c-0.8,1.6-2.6,2.6-4.5,2.6C199.4,114.5,197.8,111,197.8,106.3 M186.7,95.7H185.1c-3.1,0-4.399,1.899-4.399,4.8v2.2L178.4,103v1.8
	h2.301V116.4h2.399V104.8h4v-2.1h-4v-2.2c0-1.7,0.5-2.7,2.101-2.7h1.5V95.7L186.7,95.7z M171,114.5c-2.601,0-3.7-1.9-3.7-5
	c0-3,1.1-4.9,3.7-4.9c2.7,0,3.8,1.9,3.8,4.9C174.8,112.6,173.7,114.5,171,114.5 M171.1,102.4c-4.3,0-6.2,3-6.2,7.1
	s1.9,7.1,6.101,7.1c4.399,0,6.2-3,6.2-7.199C177.3,105.5,175.4,102.4,171.1,102.4 M278.4,86.4h2.4V76.2c0.8-0.8,2-1.6,3.5-1.6
	c1.6,0,2.6,0.6,3.2,1.7v10h2.399V76.2c0.801-0.9,2-1.6,3.5-1.6c2.2,0,3,1,3,3v8.7h2.4V77.4c0-3.3-1.4-5.101-4.9-5.101
	c-2.1,0-3.8,0.9-4.699,2.1c-0.9-1.3-2.101-2.1-4.301-2.1c-1.8,0-3.199,0.9-4,1.9v-1.6h-2.3v13.8H278.4z M275.1,72.7H272.7v10.2
	c-0.801,0.899-2.101,1.6-3.7,1.6c-2.4,0-3.101-1.1-3.101-3.2v-8.5H263.5v8.7c0,3.4,1.399,5.2,4.8,5.2c2,0,3.7-0.8,4.5-1.9V86.4h2.3
	V72.7L275.1,72.7z M259.1,69.4c0.9,0,1.7-0.5,1.7-1.6c0-1.1-0.8-1.7-1.7-1.7c-1,0-1.7,0.5-1.7,1.7C257.4,69,258.2,69.4,259.1,69.4
	 M258,86.4h2.399V72.7H258V86.4z M252,74.8h3.7v-2.1H252v-3.9l-2.4,0.5v3.4L247,73v1.8h2.6v7.9c0,2.399,1,4,3.5,4
	c1.101,0,2.101-0.2,2.8-0.601L255.7,84c-0.601,0.2-1.301,0.4-1.9,0.4c-1.3,0-1.9-0.801-1.9-2V74.8H252z M240.3,75v-2.2H238v13.7
	h2.399v-8.9C241.1,76.1,242,75,243.7,75c0.5,0,1.3,0.1,1.8,0.3l0.3-2.5c-0.5-0.2-1.1-0.2-1.7-0.2C242.1,72.4,241,73.6,240.3,75z
	 M229.1,84.5c-2.6,0-3.7-1.9-3.7-5c0-3,1.101-4.9,3.7-4.9c2.7,0,3.8,1.9,3.8,5C232.9,82.6,231.8,84.5,229.1,84.5 M229.2,72.4
	c-4.301,0-6.2,3-6.2,7.1c0,4.1,1.899,7.1,6.1,7.1c4.4,0,6.2-3,6.2-7.199C235.4,75.5,233.5,72.4,229.2,72.4 M220.9,74.3
	c-0.8-0.9-2.3-1.9-4.8-1.9c-3.7,0-5.1,2.2-5.1,4.2c0,1.8,1.1,3.2,3.3,3.7l2.4,0.601c1.3,0.3,2,0.899,2,1.899c0,1.4-1.2,2-2.9,2
	c-2.2,0-3.1-1-3.8-1.899l-1.5,1.5c0.8,1,2.3,2.3,5.2,2.3c3.8,0,5.5-1.9,5.5-4.101c0-2-1.301-3.199-3.801-3.8l-2.3-0.5
	c-1.2-0.3-1.7-1-1.7-1.8c0-1.1,0.801-2.1,2.601-2.1c1.6,0,2.7,0.7,3.5,1.5L220.9,74.3L220.9,74.3z M196.8,86.4h2.4V76.2
	c0.8-0.9,2.1-1.6,3.699-1.6c2.4,0,3.101,1.1,3.101,3.2v8.5h2.399v-8.7c0-3.399-1.399-5.2-4.8-5.2c-2,0-3.7,0.8-4.5,1.9v-1.6h-2.3
	V86.4L196.8,86.4z M187.9,84.5c-2.6,0-3.699-1.9-3.699-5c0-3,1.1-4.9,3.699-4.9c2.7,0,3.801,1.9,3.801,5
	C191.7,82.6,190.6,84.5,187.9,84.5 M188,72.4c-4.3,0-6.2,3-6.2,7.1c0,4.1,1.9,7.1,6.1,7.1c4.4,0,6.2-3,6.2-7.199
	C194.1,75.5,192.3,72.4,188,72.4 M167.8,76.3c0-4.8,1.6-8.2,5.8-8.2c2,0,3.7,1,4.5,2.6l2-1.3c-1.1-2.1-3.399-3.5-6.6-3.5
	c-5.7,0-8.3,4-8.3,10.5c0,6.4,2.6,10.4,8.3,10.4c3.1,0,5.5-1.5,6.6-3.5l-2-1.3c-0.8,1.6-2.5,2.6-4.5,2.6
	C169.4,84.5,167.8,81,167.8,76.3 M266.4,56.4h2.4V46.2c0.8-0.9,2.1-1.6,3.7-1.6c2.399,0,3.1,1.1,3.1,3.2v8.5h2.4v-8.7
	c0-3.4-1.4-5.2-4.8-5.2c-2,0-3.7,0.8-4.5,1.9v-1.6H266.4V56.4L266.4,56.4z M257.5,54.5c-2.601,0-3.7-1.9-3.7-5c0-3,1.1-4.9,3.7-4.9
	c2.7,0,3.8,1.9,3.8,5C261.3,52.6,260.2,54.5,257.5,54.5 M257.6,42.4c-4.3,0-6.2,3-6.2,7.1s1.9,7.1,6.101,7.1c4.399,0,6.2-3,6.2-7.2
	C263.7,45.5,261.9,42.4,257.6,42.4 M247.5,39.4c0.899,0,1.7-0.5,1.7-1.6c0-1.1-0.801-1.7-1.7-1.7c-1,0-1.7,0.5-1.7,1.7
	C245.8,39,246.6,39.4,247.5,39.4 M246.4,56.4h2.4V42.7h-2.4V56.4z M240.4,44.8h3.7v-2.1h-3.7v-3.9L238,39.3v3.4L235.4,43v1.8H238
	v7.9c0,2.4,1.1,4,3.5,4c1.1,0,2.1-0.2,2.8-0.6l-0.2-2.1c-0.6,0.2-1.3,0.4-1.899,0.4c-1.301,0-1.9-0.8-1.9-2v-7.6H240.4z M225,52.7
	c0-1.5,1.5-2.3,3.899-2.6l2.2-0.3v3.3c-0.8,0.9-2.2,1.7-3.8,1.7C225.8,54.8,225,54,225,52.7 M233.6,56.4v-9.6c0-2.9-1.8-4.4-5.1-4.4
	c-3.4,0-5.2,1.4-5.2,3.4c0,0.4,0,0.7,0.1,1h2.101V46c0-1,0.899-1.7,2.8-1.7c2.2,0,2.8,0.9,2.8,2.4v1.4l-2.3,0.2
	c-3.8,0.4-6.3,1.6-6.3,4.4c0,2.4,1.6,3.9,4.1,3.9c2.2,0,3.8-1,4.601-2v1.7h2.399V56.4z M209.7,49.6c0,4,1.8,7.1,6.1,7.1
	c2.3,0,4.1-1,5.1-2.8l-1.699-1.2c-0.7,1.2-1.7,1.9-3.2,1.9c-2.7,0-3.8-2.1-3.8-5s1.1-5,3.8-5c1.5,0,2.5,0.6,3.2,1.8l1.699-1.2
	c-1-1.9-2.8-2.8-5.1-2.8C211.5,42.4,209.7,45.6,209.7,49.6 M207,42.7h-2.4v10.2c-0.8,0.9-2.1,1.6-3.7,1.6c-2.399,0-3.1-1.1-3.1-3.2
	v-8.5h-2.4v8.7c0,3.4,1.4,5.2,4.801,5.2c2,0,3.699-0.8,4.5-1.9v1.6h2.3V42.7L207,42.7z M182.5,49.5c0-2.9,0.899-4.9,3.8-4.9
	c1.8,0,2.9,0.9,3.4,1.6v6.5c-0.601,0.9-1.7,1.7-3.4,1.7C183.4,54.5,182.5,52.4,182.5,49.5 M189.8,44c-0.7-0.8-2-1.6-3.9-1.6
	c-3.899,0-5.8,2.8-5.8,7.1c0,4.4,1.9,7.2,5.8,7.2c1.801,0,3.2-0.7,4-1.6v1.3h2.301V35.7h-2.4V44L189.8,44z M168.6,54.2v-7.1h8.5
	v-2.2h-8.5v-6.6h9.601v-2.2H166v20.3h12.3v-2.2H168.6z"/>
</svg>
