<svg xmlns="http://www.w3.org/2000/svg" width="302.1" height="152.5" viewBox="0 0 302.1 152.5"><path fill="#E9543D" d="M2.3 0v87.8H74v-23H33.7v-9.3h31.7V34.9H33.7v-9.3H74V0M127.7 54.5c-2.7-.4-7-1.3-13.9-1.3-7.2 0-12.1 2-12.1 9.5 0 7.7 5.5 9 11.9 9 4.4 0 9.2-.8 14-1.7v16c-6.5 1.8-13.3 3.1-19.7 3.1-19.7 0-29.3-9.1-29.3-28.3 0-17.3 9.3-27 28.9-27 7.2 0 16.5 2.4 20.1 3.5v17.2zM33.7 93.7h20v35.8H74v16.9H33.7M108.1 104.9h-.1l-4.8 20.1h9.7l-4.8-20.1zm7.6 33.4h-15.2l-1.7 8.1H77.3l15.9-52.7h30.3l15.6 52.7h-21.8l-1.6-8.1zM27.8 104.8c-1.5-.2-3.5-.8-7.4-.8-4.1 0-6.5 2-6.5 6.3 0 4.4 2.8 6 6.4 6 2.5 0 4.8-.5 7.5-1v9.1c-3.7 1-7.2 1.8-10.8 1.8-11.2 0-15.8-6-15.8-16.9 0-9.8 4.4-16.2 15.5-16.2 4.1 0 9 1.4 11.1 2v9.7zM301.8 134.3c-.8-.9-2.3-1.9-4.8-1.9-3.7 0-5.1 2.2-5.1 4.2 0 1.8 1.1 3.2 3.3 3.7l2.4.6c1.3.3 2 .9 2 1.9 0 1.4-1.2 2-2.9 2-2.2 0-3.1-1-3.8-1.9l-1.5 1.5c.8 1 2.3 2.3 5.2 2.3 3.8 0 5.5-1.9 5.5-4.1 0-2-1.3-3.2-3.8-3.8l-2.3-.5c-1.2-.3-1.7-1-1.7-1.8 0-1.1.8-2.1 2.6-2.1 1.6 0 2.7.7 3.5 1.5l1.4-1.6zm-21 4.2c.2-2.3 1.1-4 3.6-4 2 0 3.2 1.4 3.2 3.4 0 .2 0 .4-.1.6h-6.7zm3.8 6.1c-2.7 0-3.8-1.7-3.9-4.3h8.9c.1-.6.2-1.5.2-2.1 0-2.9-1.7-5.8-5.5-5.8-4.1 0-6 3.2-6 7.1 0 4.2 1.8 7.2 6.3 7.2 2.1 0 4-.9 4.9-1.9l-1.2-1.6c-1 1-2.5 1.4-3.7 1.4m-11.9-18.9v17.1c0 2.2.8 3.7 3.1 3.7h1.4v-2.2h-.8c-1.1 0-1.4-.5-1.4-1.7v-16.8h-2.3zm-11.5 12.8c.1-2.3 1.1-4 3.6-4 2 0 3.2 1.4 3.2 3.4 0 .2 0 .4-.1.6h-6.7zm3.8 6.1c-2.7 0-3.8-1.7-3.9-4.3h8.9c.1-.6.2-1.5.2-2.1 0-2.9-1.6-5.8-5.5-5.8-4.1 0-6 3.2-6 7.1 0 4.2 1.8 7.2 6.3 7.2 2.1 0 4-.9 4.9-1.9l-1.2-1.6c-1 1-2.5 1.4-3.7 1.4m-18.3-5c0-2.9.9-4.9 3.8-4.9 1.8 0 2.8.9 3.3 1.7v6.5c-.7.9-1.9 1.7-3.3 1.7-3-.1-3.8-2.3-3.8-5m7.2-6.9v1.3c-.8-.9-2-1.6-3.9-1.6-3.9 0-5.8 2.8-5.8 7.1s1.8 7.1 5.9 7.1c1.6 0 2.9-.7 3.8-1.7v2.6c0 1.7-1.2 3-3.3 3-2 0-3.2-1.1-3.2-2.2h-2.2c0 2.2 1.8 4.1 5.4 4.1s5.7-2.2 5.7-5.1v-14.7h-2.4zM230 146.4h2.4v-10.2c.8-.9 2.1-1.6 3.7-1.6 2.4 0 3.1 1.1 3.1 3.2v8.5h2.4v-8.7c0-3.4-1.4-5.2-4.8-5.2-2 0-3.7.8-4.5 1.9v-1.7H230v13.8zm-10.7-17.6l3.5 10.1h-7l3.5-10.1zm6 17.6h2.8l-7.3-20.3h-3.1l-7.3 20.3h2.8l1.8-5.3h8.4l1.9 5.3zm-22.6-12.1c-.8-.9-2.3-1.9-4.8-1.9-3.7 0-5.1 2.2-5.1 4.2 0 1.8 1.1 3.2 3.3 3.7l2.4.6c1.3.3 2 .9 2 1.9 0 1.4-1.2 2-2.9 2-2.2 0-3.1-1-3.8-1.9l-1.5 1.5c.8 1 2.3 2.3 5.2 2.3 3.8 0 5.5-1.9 5.5-4.1 0-2-1.3-3.2-3.8-3.8l-2.3-.5c-1.2-.3-1.7-1-1.7-1.8 0-1.1.8-2.1 2.6-2.1 1.6 0 2.7.7 3.5 1.5l1.4-1.6zm-18.1 10.2c-2.6 0-3.7-1.9-3.7-5 0-3 1.1-4.9 3.7-4.9 2.7 0 3.8 1.9 3.8 4.9 0 3.1-1.1 5-3.8 5m.1-12.1c-4.3 0-6.2 3-6.2 7.1s1.9 7.1 6.1 7.1c4.4 0 6.2-3 6.2-7.2 0-3.9-1.8-7-6.1-7m-16.1 11.8v-18.1H166v20.3h11.2v-2.2h-8.6zM272.7 95.7v17.1c0 2.2.8 3.7 3.1 3.7h1.4v-2.2h-.8c-1.1 0-1.4-.5-1.4-1.7V95.7h-2.3zm-11.6 17c0-1.5 1.5-2.3 3.9-2.6l2.2-.3v3.3c-.8.9-2.2 1.7-3.8 1.7s-2.3-.8-2.3-2.1m8.6 3.7v-9.6c0-2.9-1.8-4.4-5.1-4.4-3.4 0-5.2 1.4-5.2 3.4 0 .4 0 .7.1 1h2.1v-.8c0-1 .9-1.7 2.8-1.7 2.2 0 2.8.9 2.8 2.4v1.4l-2.3.2c-3.8.4-6.3 1.6-6.3 4.4 0 2.4 1.6 3.9 4.1 3.9 2.2 0 3.8-1 4.6-2v1.7h2.4zM252.3 105v-2.2H250v13.7h2.4v-8.9c.7-1.5 1.7-2.6 3.3-2.6.5 0 1.3.1 1.8.3l.3-2.5c-.5-.2-1-.2-1.6-.2-2.1-.2-3.2 1-3.9 2.4zm-8.2-.2h3.7v-2.1h-3.7v-3.9l-2.4.5v3.4l-2.6.3v1.8h2.6v7.9c0 2.4 1 4 3.5 4 1.1 0 2.1-.2 2.8-.6l-.2-2.1c-.6.2-1.3.4-1.9.4-1.3 0-1.9-.8-1.9-2v-7.6zm-18.3 11.6h2.4v-10.2c.8-.9 2.1-1.6 3.7-1.6 2.4 0 3.1 1.1 3.1 3.2v8.5h2.4v-8.7c0-3.4-1.4-5.3-4.8-5.3-2 0-3.7.8-4.5 1.9v-1.6h-2.3v13.8zm-11.6-7.9c.2-2.3 1.1-4 3.6-4 2 0 3.2 1.4 3.2 3.4 0 .2 0 .4-.1.6h-6.7zm3.8 6.1c-2.7 0-3.8-1.7-3.9-4.3h8.9c.1-.6.2-1.5.2-2.1 0-2.9-1.7-5.8-5.5-5.8-4.1 0-6 3.2-6 7.1 0 4.2 1.8 7.2 6.3 7.2 2.1 0 4-.9 4.9-1.9l-1.2-1.6c-1 1-2.5 1.4-3.7 1.4m-20.2-8.3c0-4.8 1.6-8.2 5.8-8.2 1.9 0 3.7 1 4.5 2.6l2-1.3c-1.1-2.1-3.5-3.5-6.6-3.5-5.7 0-8.3 4-8.3 10.5 0 6.4 2.6 10.4 8.3 10.4 3.1 0 5.5-1.5 6.6-3.5l-2-1.3c-.8 1.6-2.6 2.6-4.5 2.6-4.2-.1-5.8-3.6-5.8-8.3m-11.1-10.6h-1.6c-3.1 0-4.4 1.9-4.4 4.8v2.2l-2.3.3v1.8h2.3v11.6h2.4v-11.6h4v-2.1h-4v-2.2c0-1.7.5-2.7 2.1-2.7h1.5v-2.1zM171 114.5c-2.6 0-3.7-1.9-3.7-5 0-3 1.1-4.9 3.7-4.9 2.7 0 3.8 1.9 3.8 4.9 0 3.1-1.1 5-3.8 5m.1-12.1c-4.3 0-6.2 3-6.2 7.1s1.9 7.1 6.1 7.1c4.4 0 6.2-3 6.2-7.2.1-3.9-1.8-7-6.1-7M278.4 86.4h2.4V76.2c.8-.8 2-1.6 3.5-1.6 1.6 0 2.6.6 3.2 1.7v10h2.4V76.2c.8-.9 2-1.6 3.5-1.6 2.2 0 3 1 3 3v8.7h2.4v-8.9c0-3.3-1.4-5.1-4.9-5.1-2.1 0-3.8.9-4.7 2.1-.9-1.3-2.1-2.1-4.3-2.1-1.8 0-3.2.9-4 1.9v-1.6h-2.3v13.8zm-3.3-13.7h-2.4v10.2c-.8.9-2.1 1.6-3.7 1.6-2.4 0-3.1-1.1-3.1-3.2v-8.5h-2.4v8.7c0 3.4 1.4 5.2 4.8 5.2 2 0 3.7-.8 4.5-1.9v1.6h2.3V72.7zm-16-3.3c.9 0 1.7-.5 1.7-1.6s-.8-1.7-1.7-1.7c-1 0-1.7.5-1.7 1.7s.8 1.6 1.7 1.6m-1.1 17h2.4V72.7H258v13.7zm-6-11.6h3.7v-2.1H252v-3.9l-2.4.5v3.4l-2.6.3v1.8h2.6v7.9c0 2.4 1 4 3.5 4 1.1 0 2.1-.2 2.8-.6l-.2-2.1c-.6.2-1.3.4-1.9.4-1.3 0-1.9-.8-1.9-2v-7.6zm-11.7.2v-2.2H238v13.7h2.4v-8.9c.7-1.5 1.6-2.6 3.3-2.6.5 0 1.3.1 1.8.3l.3-2.5c-.5-.2-1.1-.2-1.7-.2-2-.2-3.1 1-3.8 2.4zm-11.2 9.5c-2.6 0-3.7-1.9-3.7-5 0-3 1.1-4.9 3.7-4.9 2.7 0 3.8 1.9 3.8 5 0 3-1.1 4.9-3.8 4.9m.1-12.1c-4.3 0-6.2 3-6.2 7.1s1.9 7.1 6.1 7.1c4.4 0 6.2-3 6.2-7.2.1-3.9-1.8-7-6.1-7m-8.3 1.9c-.8-.9-2.3-1.9-4.8-1.9-3.7 0-5.1 2.2-5.1 4.2 0 1.8 1.1 3.2 3.3 3.7l2.4.6c1.3.3 2 .9 2 1.9 0 1.4-1.2 2-2.9 2-2.2 0-3.1-1-3.8-1.9l-1.5 1.5c.8 1 2.3 2.3 5.2 2.3 3.8 0 5.5-1.9 5.5-4.1 0-2-1.3-3.2-3.8-3.8l-2.3-.5c-1.2-.3-1.7-1-1.7-1.8 0-1.1.8-2.1 2.6-2.1 1.6 0 2.7.7 3.5 1.5l1.4-1.6zm-24.1 12.1h2.4V76.2c.8-.9 2.1-1.6 3.7-1.6 2.4 0 3.1 1.1 3.1 3.2v8.5h2.4v-8.7c0-3.4-1.4-5.2-4.8-5.2-2 0-3.7.8-4.5 1.9v-1.6h-2.3v13.7zm-8.9-1.9c-2.6 0-3.7-1.9-3.7-5 0-3 1.1-4.9 3.7-4.9 2.7 0 3.8 1.9 3.8 5 0 3-1.1 4.9-3.8 4.9m.1-12.1c-4.3 0-6.2 3-6.2 7.1s1.9 7.1 6.1 7.1c4.4 0 6.2-3 6.2-7.2 0-3.9-1.8-7-6.1-7m-20.2 3.9c0-4.8 1.6-8.2 5.8-8.2 2 0 3.7 1 4.5 2.6l2-1.3c-1.1-2.1-3.4-3.5-6.6-3.5-5.7 0-8.3 4-8.3 10.5 0 6.4 2.6 10.4 8.3 10.4 3.1 0 5.5-1.5 6.6-3.5l-2-1.3c-.8 1.6-2.5 2.6-4.5 2.6-4.2-.1-5.8-3.6-5.8-8.3M266.4 56.4h2.4V46.2c.8-.9 2.1-1.6 3.7-1.6 2.4 0 3.1 1.1 3.1 3.2v8.5h2.4v-8.7c0-3.4-1.4-5.2-4.8-5.2-2 0-3.7.8-4.5 1.9v-1.6h-2.3v13.7zm-8.9-1.9c-2.6 0-3.7-1.9-3.7-5 0-3 1.1-4.9 3.7-4.9 2.7 0 3.8 1.9 3.8 5 0 3-1.1 4.9-3.8 4.9m.1-12.1c-4.3 0-6.2 3-6.2 7.1s1.9 7.1 6.1 7.1c4.4 0 6.2-3 6.2-7.2 0-3.9-1.8-7-6.1-7m-10.1-3c.9 0 1.7-.5 1.7-1.6s-.8-1.7-1.7-1.7c-1 0-1.7.5-1.7 1.7s.8 1.6 1.7 1.6m-1.1 17h2.4V42.7h-2.4v13.7zm-6-11.6h3.7v-2.1h-3.7v-3.9l-2.4.5v3.4l-2.6.3v1.8h2.6v7.9c0 2.4 1.1 4 3.5 4 1.1 0 2.1-.2 2.8-.6l-.2-2.1c-.6.2-1.3.4-1.9.4-1.3 0-1.9-.8-1.9-2v-7.6zM225 52.7c0-1.5 1.5-2.3 3.9-2.6l2.2-.3v3.3c-.8.9-2.2 1.7-3.8 1.7-1.5 0-2.3-.8-2.3-2.1m8.6 3.7v-9.6c0-2.9-1.8-4.4-5.1-4.4-3.4 0-5.2 1.4-5.2 3.4 0 .4 0 .7.1 1h2.1V46c0-1 .9-1.7 2.8-1.7 2.2 0 2.8.9 2.8 2.4v1.4l-2.3.2c-3.8.4-6.3 1.6-6.3 4.4 0 2.4 1.6 3.9 4.1 3.9 2.2 0 3.8-1 4.6-2v1.7h2.4zm-23.9-6.8c0 4 1.8 7.1 6.1 7.1 2.3 0 4.1-1 5.1-2.8l-1.7-1.2c-.7 1.2-1.7 1.9-3.2 1.9-2.7 0-3.8-2.1-3.8-5s1.1-5 3.8-5c1.5 0 2.5.6 3.2 1.8l1.7-1.2c-1-1.9-2.8-2.8-5.1-2.8-4.3 0-6.1 3.2-6.1 7.2m-2.7-6.9h-2.4v10.2c-.8.9-2.1 1.6-3.7 1.6-2.4 0-3.1-1.1-3.1-3.2v-8.5h-2.4v8.7c0 3.4 1.4 5.2 4.8 5.2 2 0 3.7-.8 4.5-1.9v1.6h2.3V42.7zm-24.5 6.8c0-2.9.9-4.9 3.8-4.9 1.8 0 2.9.9 3.4 1.6v6.5c-.6.9-1.7 1.7-3.4 1.7-2.9.1-3.8-2-3.8-4.9m7.3-5.5c-.7-.8-2-1.6-3.9-1.6-3.9 0-5.8 2.8-5.8 7.1 0 4.4 1.9 7.2 5.8 7.2 1.8 0 3.2-.7 4-1.6v1.3h2.3V35.7h-2.4V44zm-21.2 10.2v-7.1h8.5v-2.2h-8.5v-6.6h9.6v-2.2H166v20.3h12.3v-2.2h-9.7z"/></svg>